PathFileType	4	(X/Y/Z)	Walk2.trc
DataRate	CameraRate	NumFrames	NumMarkers	Units	OrigDataRate	OrigDataStartFrame	OrigNumFrames
200.000000	200.000000	4	61	mm	200.000000	427	591
Frame#	Times		RCAR		RTH2		LTH3		LTB1		LWRU		LBHD		LFA1		RTH3		LUA1		LElbow		LCAR		RToe		RPSI		RASI		RTB2		RLFC		RTB3		RTB1		C7		RMT5		LElbowM		RTB4		LTH4		RTH4		LTH1		LTH2		RWRR		RBHD		LWRR		STRN		RFA1		RMT1		RTH1		RMMAL		RLMAL		RBack		T10		LPSI		LASI		CLAV		RElbow		RUA1		RCAL		LLFC		LMFC		LACR1		LTB4		RElbowM		LTB3		LCAL		RFHD		RACR1		LFHD		LMMAL		RMFC		LTB2		LMT5		LLMAL		RWRU		LToe		LMT1
			X1	Y1	Z1	X2	Y2	Z2	X3	Y3	Z3	X4	Y4	Z4	X5	Y5	Z5	X6	Y6	Z6	X7	Y7	Z7	X8	Y8	Z8	X9	Y9	Z9	X10	Y10	Z10	X11	Y11	Z11	X12	Y12	Z12	X13	Y13	Z13	X14	Y14	Z14	X15	Y15	Z15	X16	Y16	Z16	X17	Y17	Z17	X18	Y18	Z18	X19	Y19	Z19	X20	Y20	Z20	X21	Y21	Z21	X22	Y22	Z22	X23	Y23	Z23	X24	Y24	Z24	X25	Y25	Z25	X26	Y26	Z26	X27	Y27	Z27	X28	Y28	Z28	X29	Y29	Z29	X30	Y30	Z30	X31	Y31	Z31	X32	Y32	Z32	X33	Y33	Z33	X34	Y34	Z34	X35	Y35	Z35	X36	Y36	Z36	X37	Y37	Z37	X38	Y38	Z38	X39	Y39	Z39	X40	Y40	Z40	X41	Y41	Z41	X42	Y42	Z42	X43	Y43	Z43	X44	Y44	Z44	X45	Y45	Z45	X46	Y46	Z46	X47	Y47	Z47	X48	Y48	Z48	X49	Y49	Z49	X50	Y50	Z50	X51	Y51	Z51	X52	Y52	Z52	X53	Y53	Z53	X54	Y54	Z54	X55	Y55	Z55	X56	Y56	Z56	X57	Y57	Z57	X58	Y58	Z58	X59	Y59	Z59	X60	Y60	Z60	X61	Y61	Z61

427	2.135	398.01	842.09	354.89	390.13	714.15	192.22	330.25	612.48	-137.28	308.83	379.71	-69.161	303.99	861.51	-231.91	268.12	1645.7	-46.508	259.45	988.19	-245.81	326.73	613.6	209.77	250.76	1293.5	-223.08	225.74	1136.6	-241.06	378.58	827.27	-239.95	460.65	30.212	111.12	132.15	1030.8	107.46	353.25	1046	183.89	320.73	273.13	174.79	323.45	497.38	197.9	321.3	189.14	100.03	361.33	370.37	119.87	237.1	1518.5	36.183	356.46	25.53	171.52	198.08	1127.9	-168.41	341.96	279.62	108.36	312.99	703.03	-142.97	315.54	709.02	223.01	298.47	795.04	-145.87	381.74	718.36	-128.47	382.44	878.64	300.72	275.46	1653.7	95.172	373.09	881.78	-189.21	406.67	1252.8	22.514	301.12	1002.1	364.62	404.57	38.726	90.735	317.46	802.92	238.34	295.1	94.327	58.331	263.49	69.609	138.26	172.21	1435	177.91	126.97	1298.1	52.37	120.35	1023.7	30.258	318.42	1037.5	-98.868	364.78	1426.9	27.205	271.59	1150.1	343.36	304.84	1300.7	295.42	206.04	35.63	89.019	330.52	518.06	-130.93	380.41	515.58	-7.5517	294.44	1467.1	-134.97	239.37	323.44	-62.631	228.31	1133.1	276.4	164.46	263.23	-58.5	-27.849	214.87	-25.709	452.23	1685.1	63.656	327.86	1468	189.79	449.11	1681.7	-12.986	81.646	196.81	-11.929	325.43	516.18	67.253	212.36	351.58	-127.52	57.719	105.01	-126.69	32.045	211.4	-84.569	335.73	868.7	360.65	143.97	52.87	-85.048	110.94	77.805	-57.503
428	2.14	408.52	843.69	354.13	393.33	713.63	192.17	339.07	613.93	-137.46	320.68	380.84	-69.416	305.7	861.51	-230.79	273.41	1646.1	-46.468	261.61	988.33	-244.76	329.23	613.56	209.79	254.37	1293.7	-222.67	228.52	1136.9	-240.21	380.12	826.92	-238.92	460.69	30.156	111.17	137.21	1031.3	107.75	358.07	1046.4	184.28	321.57	273.01	174.7	325.12	497.29	197.83	321.73	189.01	99.907	362.41	370.1	119.73	242.33	1518.9	36.377	356.45	25.539	171.47	201.12	1128.5	-167.45	342.69	279.42	108.24	320.77	704.31	-143.14	320.03	708.81	223.51	305.47	796.21	-145.82	389.51	720.34	-128.72	392.27	880.1	300.06	280.72	1654.1	95.208	375.01	881.58	-188.3	411.88	1253.2	22.433	310.4	1002.8	364.7	404.61	38.712	90.679	321.48	802.95	238.38	295.14	94.263	58.228	263.63	69.708	138.19	177.82	1435.4	178.41	132.16	1298.6	52.913	125.3	1024.2	30.488	323.72	1037.9	-98.556	369.97	1427.3	27.208	279.57	1150.7	343.79	311.9	1301.4	295.37	206.03	35.751	88.961	340.35	519.61	-131.03	390.15	517.77	-7.9449	299.22	1467.4	-134.94	251.91	323.66	-62.673	235.85	1133.5	277.14	177.83	262.5	-58.309	-13.923	210.95	-24.945	457.53	1685.4	63.741	333.47	1468.6	189.7	454.42	1682	-12.904	96.076	194.89	-11.482	327.09	516.11	67.13	224.16	351.77	-127.28	73.716	103.25	-126.48	46.02	208.85	-83.946	346.03	869.72	360.34	161.06	52.522	-85.288	127.62	76.819	-57.554
429	2.145	419.04	845.31	353.35	396.53	713.11	192.1	347.83	615.37	-137.61	332.48	381.95	-69.601	307.43	861.52	-229.66	278.69	1646.4	-46.443	263.76	988.46	-243.72	331.71	613.52	209.8	257.96	1293.9	-222.28	231.28	1137.2	-239.39	381.68	826.59	-237.94	460.73	30.105	111.21	142.25	1031.7	108.01	362.88	1046.7	184.71	322.39	272.89	174.6	326.77	497.2	197.77	322.15	188.88	99.788	363.48	369.83	119.6	247.55	1519.3	36.561	356.45	25.547	171.43	204.16	1129.1	-166.5	343.42	279.22	108.13	328.5	705.58	-143.3	324.57	708.59	224.07	312.45	797.37	-145.79	397.22	722.29	-128.95	402.12	881.57	299.37	285.97	1654.4	95.231	376.95	881.4	-187.44	417.09	1253.5	22.36	319.66	1003.5	364.74	404.64	38.696	90.627	325.49	802.97	238.41	295.17	94.203	58.137	263.76	69.81	138.13	183.41	1435.9	178.88	137.34	1299	53.421	130.25	1024.7	30.691	329.04	1038.3	-98.23	375.16	1427.6	27.204	287.52	1151.2	344.19	318.92	1302.1	295.31	206.02	35.867	88.914	350.08	521.13	-131.1	399.68	519.97	-8.2947	304	1467.6	-134.92	264.49	323.81	-62.668	243.4	1133.8	277.83	191.29	261.62	-58.096	0.2156	206.72	-24.243	462.82	1685.7	63.82	339.06	1469.2	189.61	459.72	1682.3	-12.827	110.67	192.76	-11.058	328.75	516.04	67.004	236	351.79	-127.04	89.988	101.25	-126.26	60.195	206	-83.36	356.33	870.75	359.98	178.42	52.058	-85.47	144.54	75.682	-57.569
430	2.15	429.56	846.95	352.54	399.75	712.57	192.01	356.51	616.8	-137.74	344.23	383.06	-69.713	309.17	861.52	-228.53	283.98	1646.7	-46.431	265.89	988.58	-242.71	334.19	613.48	209.79	261.53	1294.1	-221.91	234.01	1137.5	-238.59	383.24	826.27	-236.99	460.77	30.061	111.25	147.29	1032.1	108.24	367.68	1047.1	185.17	323.2	272.77	174.52	328.41	497.11	197.7	322.56	188.76	99.675	364.54	369.56	119.48	252.76	1519.7	36.734	356.44	25.552	171.38	207.19	1129.6	-165.58	344.15	279.02	108.02	336.15	706.83	-143.44	329.08	708.37	224.67	319.4	798.52	-145.77	404.88	724.21	-129.15	411.97	883.07	298.66	291.21	1654.7	95.243	378.91	881.23	-186.62	422.29	1253.8	22.297	328.89	1004.2	364.75	404.66	38.679	90.58	329.49	802.98	238.41	295.19	94.151	58.059	263.88	69.911	138.08	188.98	1436.2	179.33	142.51	1299.4	53.894	135.19	1025.1	30.869	334.38	1038.7	-97.895	380.33	1427.9	27.194	295.43	1151.7	344.56	325.9	1302.7	295.25	206	35.979	88.879	359.71	522.62	-131.16	409.05	522.15	-8.5981	308.78	1467.9	-134.91	277.1	323.9	-62.617	250.95	1134.1	278.46	204.86	260.6	-57.861	14.575	202.19	-23.599	468.11	1685.9	63.894	344.63	1469.8	189.51	465.02	1682.6	-12.756	125.43	190.43	-10.657	330.41	515.96	66.88	247.89	351.64	-126.8	106.53	99.041	-126.05	74.57	202.89	-82.813	366.64	871.8	359.58	196.04	51.493	-85.612	161.71	74.41	-57.562
